<?xml version="1.0" standalone="no"?>
<!DOCTYPE svg PUBLIC "-//W3C//DTD SVG 20010904//EN"
 "http://www.w3.org/TR/2001/REC-SVG-20010904/DTD/svg10.dtd">
<svg version="1.0" xmlns="http://www.w3.org/2000/svg"
 width="1640.000000pt" height="624.000000pt" viewBox="0 0 1640.000000 624.000000"
 preserveAspectRatio="xMidYMid meet">

<g transform="translate(0.000000,624.000000) scale(0.100000,-0.100000)"
fill="#000000" stroke="none">
<path d="M0 3120 l0 -3120 8200 0 8200 0 0 3120 0 3120 -8200 0 -8200 0 0
-3120z m5500 1600 l0 -80 -100 0 -100 0 0 80 0 80 100 0 100 0 0 -80z m350
-313 c0 -292 3 -396 12 -405 7 -7 27 -12 45 -12 l33 0 0 -74 0 -73 -31 -7
c-55 -11 -130 -6 -164 10 -20 9 -41 31 -52 52 -16 34 -18 74 -21 470 l-3 432
91 0 90 0 0 -393z m4670 243 c0 -82 2 -150 4 -150 2 0 23 9 47 20 82 37 206
21 257 -33 50 -54 54 -80 60 -374 l4 -273 -96 0 -96 0 0 250 c0 237 -1 251
-20 270 -22 22 -66 26 -104 9 -50 -23 -56 -57 -56 -303 l0 -226 -90 0 -90 0 0
480 0 480 90 0 90 0 0 -150z m-2724 -125 c60 -18 107 -63 129 -125 10 -26 19
-94 22 -162 l6 -118 -182 0 -181 0 6 -27 c20 -94 45 -109 172 -99 48 3 97 9
110 12 21 6 22 4 22 -74 l0 -81 -47 -8 c-27 -4 -95 -8 -153 -8 -164 0 -223 32
-267 146 -12 34 -17 78 -17 189 -1 169 13 223 72 290 64 72 194 99 308 65z
m695 5 c20 -6 48 -21 62 -34 l25 -23 42 28 c47 32 110 44 177 35 67 -9 105
-34 132 -89 23 -47 24 -55 26 -328 l2 -279 -93 0 -94 0 0 248 c0 208 -2 251
-16 270 -22 32 -68 29 -105 -7 l-29 -29 0 -241 0 -241 -89 0 -89 0 -4 248 c-2
136 -8 255 -12 265 -20 42 -97 33 -126 -16 -18 -29 -20 -51 -20 -264 l0 -233
-90 0 -90 0 0 345 0 345 75 0 c66 0 75 -2 75 -18 0 -30 11 -33 42 -11 52 38
128 49 199 29z m1682 -5 c14 -6 17 -20 17 -87 0 -72 -2 -79 -17 -73 -10 3 -48
9 -85 12 -113 10 -138 -26 -138 -201 0 -107 15 -157 51 -176 23 -13 135 -9
172 5 15 6 17 -1 17 -74 0 -79 0 -81 -27 -88 -16 -5 -75 -8 -133 -8 -94 0
-110 3 -150 25 -82 46 -120 153 -120 336 0 192 56 292 188 335 29 9 196 5 225
-6z m1293 -16 c26 -13 56 -35 66 -50 26 -35 38 -128 38 -311 l0 -158 25 -6
c24 -6 25 -10 25 -76 l0 -70 -70 4 c-52 3 -77 9 -100 26 l-31 23 -27 -20 c-65
-46 -193 -53 -268 -14 -110 56 -124 274 -24 354 43 35 133 59 217 59 l63 0 0
38 c0 20 -4 42 -8 48 -24 37 -102 43 -217 19 -38 -8 -71 -15 -73 -15 -2 0 -2
35 0 78 l3 77 65 12 c36 7 111 11 166 9 84 -2 110 -7 150 -27z m708 20 c50
-12 97 -57 116 -109 8 -23 14 -125 18 -307 l4 -273 -96 0 -96 0 0 250 c0 237
-1 251 -20 270 -22 22 -66 26 -104 9 -50 -23 -56 -57 -56 -303 l0 -226 -90 0
-90 0 0 345 0 345 75 0 c66 0 75 -2 75 -18 0 -31 9 -31 67 -1 60 32 121 37
197 18z m814 -1 l122 1 0 -70 0 -71 -38 7 -38 6 4 -93 c3 -82 1 -98 -20 -138
-41 -80 -105 -109 -265 -117 l-103 -6 0 -26 0 -26 138 0 c121 0 142 -2 177
-21 73 -39 104 -96 104 -189 1 -93 -43 -155 -134 -186 -45 -16 -290 -19 -387
-6 l-58 8 0 76 0 76 38 -7 c20 -3 96 -9 167 -12 151 -6 178 2 183 53 3 25 -2
35 -23 49 -22 15 -43 16 -169 10 l-143 -8 -24 38 c-30 50 -38 144 -15 198 15
37 15 39 -8 67 -68 80 -56 261 20 329 63 55 131 71 259 63 50 -3 145 -6 213
-5z m608 -3 c60 -18 107 -63 129 -125 10 -26 19 -94 22 -162 l6 -118 -182 0
-181 0 6 -27 c20 -94 45 -109 172 -99 48 3 97 9 110 12 21 6 22 4 22 -74 l0
-81 -47 -8 c-27 -4 -95 -8 -153 -8 -164 0 -223 32 -267 146 -12 34 -17 78 -17
189 -1 169 13 223 72 290 64 72 194 99 308 65z m-8106 -340 l0 -345 -90 0 -90
0 0 345 0 345 90 0 90 0 0 -345z m1004 315 c101 -48 140 -138 140 -315 -1
-135 -22 -217 -70 -274 -49 -57 -106 -76 -229 -76 -85 0 -107 4 -148 24 -92
45 -126 120 -134 291 -10 221 38 320 180 366 63 21 203 12 261 -16z m2778 -50
c44 -182 111 -440 114 -437 2 1 28 117 59 257 30 139 57 255 59 257 2 2 42 3
88 1 l85 -3 -88 -375 c-49 -206 -95 -394 -104 -417 -37 -98 -95 -132 -220
-133 l-80 0 0 75 0 75 52 0 c42 0 55 4 67 22 24 33 21 66 -6 70 -20 3 -33 37
-125 323 -56 176 -105 330 -108 343 -6 23 -5 23 92 20 l97 -3 18 -75z m-2349
3 c8 -38 35 -157 59 -265 23 -109 45 -198 48 -198 3 0 32 119 64 265 l59 265
92 0 92 0 -82 -312 c-45 -172 -85 -325 -89 -340 l-6 -28 -133 0 -132 0 -83
318 c-45 174 -85 327 -88 340 -6 22 -5 22 89 22 l95 0 15 -67z m-1843 -608 l0
-165 -1310 0 -1310 0 0 165 0 165 1310 0 1310 0 0 -165z m8860 -495 l0 -160
-5740 0 -5740 0 0 160 0 160 5740 0 5740 0 0 -160z m0 -495 l0 -165 -5740 0
-5740 0 0 165 0 165 5740 0 5740 0 0 -165z m0 -490 l0 -165 -1310 0 -1310 0 0
165 0 165 1310 0 1310 0 0 -165z"/>
<path d="M7635 4367 c-20 -17 -28 -35 -32 -70 l-6 -47 87 0 86 0 0 45 c0 84
-76 124 -135 72z"/>
<path d="M11246 4119 c-20 -15 -26 -29 -26 -57 0 -46 8 -58 44 -72 34 -12 62
-6 94 23 17 16 22 31 22 74 l0 53 -54 0 c-39 0 -60 -6 -80 -21z"/>
<path d="M12685 4381 c-34 -15 -48 -39 -49 -87 -1 -38 4 -50 27 -70 48 -41
172 -27 191 21 14 37 6 102 -14 120 -23 21 -121 31 -155 16z"/>
<path d="M13435 4367 c-20 -17 -28 -35 -32 -70 l-6 -47 87 0 86 0 0 45 c0 84
-76 124 -135 72z"/>
<path d="M6283 4365 c-12 -8 -27 -31 -33 -51 -13 -39 -17 -211 -6 -261 9 -42
49 -73 92 -73 85 0 114 49 114 193 0 111 -12 159 -47 187 -31 24 -89 27 -120
5z"/>
</g>
</svg>
