<?xml version="1.0" standalone="no"?>
<!DOCTYPE svg PUBLIC "-//W3C//DTD SVG 20010904//EN"
 "http://www.w3.org/TR/2001/REC-SVG-20010904/DTD/svg10.dtd">
<svg version="1.0" xmlns="http://www.w3.org/2000/svg"
 width="1500.000000pt" height="500.000000pt" viewBox="0 0 1500.000000 500.000000"
 preserveAspectRatio="xMidYMid meet">
<metadata>
Created by potrace 1.16, written by Peter Selinger 2001-2019
</metadata>
<g transform="translate(0.000000,500.000000) scale(0.100000,-0.100000)"
fill="#000000" stroke="none">
<path d="M1500 2500 l0 -1200 6000 0 6000 0 0 1200 0 1200 -6000 0 -6000 0 0
-1200z m1290 475 l0 -65 -70 0 -70 0 0 65 0 65 70 0 70 0 0 -65z m430 -380 l0
-445 -65 0 -65 0 0 445 0 445 65 0 65 0 0 -445z m5460 268 l0 -177 28 27 c40
38 93 57 164 57 118 0 175 -34 197 -115 6 -23 11 -136 11 -272 l0 -233 -64 0
-65 0 -3 230 c-3 194 -5 232 -19 245 -21 21 -114 30 -166 16 -71 -19 -77 -40
-81 -283 l-4 -208 -64 0 -64 0 0 445 0 445 65 0 65 0 0 -177z m-4759 -104 c76
-17 116 -58 130 -134 17 -90 7 -352 -14 -392 -39 -73 -117 -98 -287 -91 -212
9 -247 61 -238 353 6 192 27 234 125 261 60 16 215 18 284 3z m1534 0 c98 -27
124 -74 132 -235 l6 -114 -202 0 -201 0 0 -34 c0 -18 5 -47 11 -64 17 -49 52
-57 222 -55 l148 3 -3 -53 -3 -52 -50 -7 c-81 -10 -250 -9 -305 3 -62 13 -114
55 -132 107 -9 25 -13 90 -13 197 0 143 2 165 22 207 23 51 51 73 115 93 53
17 199 19 253 4z m829 -3 c19 -8 44 -28 56 -44 l23 -30 24 28 c36 43 99 63
182 58 82 -4 115 -24 146 -84 18 -35 20 -63 23 -286 l4 -248 -66 0 -66 0 0
203 c0 227 -8 273 -48 288 -39 15 -128 6 -152 -16 -33 -30 -40 -80 -40 -282
l0 -193 -65 0 -65 0 0 218 c0 154 -4 224 -13 242 -27 54 -160 52 -201 -3 -19
-26 -21 -44 -24 -243 l-4 -214 -64 0 -64 0 0 305 0 305 60 0 60 0 6 -39 6 -39
30 34 c17 19 44 38 62 43 48 14 153 13 190 -3z m1961 5 c28 -6 30 -9 33 -58
l3 -52 -108 2 c-167 3 -178 -9 -178 -198 0 -190 10 -201 183 -198 l113 2 -3
-52 -3 -52 -45 -8 c-70 -13 -240 -3 -276 16 -44 23 -82 71 -91 115 -4 20 -8
105 -8 187 0 137 2 154 23 197 23 47 65 82 120 98 32 10 193 11 237 1z m1549
-17 c22 -11 48 -31 58 -45 26 -36 38 -141 38 -356 l0 -193 -60 0 -60 0 -6 38
-6 38 -32 -32 c-79 -79 -288 -71 -343 12 -26 40 -26 198 0 237 36 55 58 62
225 65 l154 4 -7 46 c-14 93 -22 97 -218 97 l-138 0 3 50 3 50 45 7 c25 3 104
5 175 4 109 -1 136 -5 169 -22z m817 16 c45 -13 84 -54 98 -105 6 -23 11 -136
11 -272 l0 -233 -64 0 -65 0 -3 230 c-3 194 -5 232 -19 245 -21 21 -114 30
-166 16 -71 -19 -77 -40 -81 -283 l-4 -208 -64 0 -64 0 0 305 0 305 60 0 60 0
6 -39 6 -39 27 29 c14 17 44 36 66 44 47 17 145 19 196 5z m714 -1 c22 -6 54
-26 72 -46 l33 -34 0 40 0 41 61 0 60 0 -3 -352 -3 -353 -25 -50 c-20 -39 -35
-55 -75 -75 -47 -24 -57 -25 -220 -25 l-170 0 -3 51 -3 51 143 5 c79 3 156 11
171 17 36 14 57 64 57 138 l0 57 -27 -26 c-37 -34 -83 -48 -157 -48 -119 0
-181 38 -207 128 -21 73 -19 315 4 373 20 53 61 96 103 109 42 12 142 12 189
-1z m910 0 c98 -27 124 -74 132 -235 l6 -114 -202 0 -201 0 0 -34 c0 -18 5
-47 11 -64 17 -49 52 -57 222 -55 l148 3 -3 -53 -3 -52 -50 -7 c-81 -10 -250
-9 -305 3 -62 13 -114 55 -132 107 -9 25 -13 90 -13 197 0 143 2 165 22 207
23 51 51 73 115 93 53 17 199 19 253 4z m-9455 -304 l0 -305 -65 0 -65 0 0
305 0 305 65 0 65 0 0 -305z m1699 68 c42 -128 79 -235 82 -238 4 -3 42 103
85 235 l78 240 66 0 67 0 -106 -305 -105 -306 -85 3 -86 3 -102 295 c-56 162
-102 299 -103 303 0 4 30 7 67 5 l67 -3 75 -232z m2693 20 c4 -235 8 -257 56
-270 40 -12 135 -8 161 6 44 24 51 65 51 281 l0 200 66 0 65 0 -3 -352 -3
-353 -25 -50 c-38 -76 -91 -99 -238 -103 -62 -3 -137 -1 -167 3 l-55 6 0 50 0
49 98 0 c127 0 211 14 236 40 16 16 21 37 24 97 l4 77 -31 -27 c-63 -52 -202
-65 -281 -24 -78 40 -84 62 -88 345 l-4 242 65 0 65 0 4 -217z"/>
<path d="M3717 2651 c-69 -14 -72 -22 -72 -196 0 -130 3 -157 16 -171 38 -38
197 -40 242 -4 20 17 22 28 25 146 4 151 -1 189 -31 208 -27 18 -129 27 -180
17z"/>
<path d="M5270 2651 c-20 -4 -41 -10 -47 -14 -14 -9 -33 -71 -33 -109 l0 -28
141 0 142 0 -7 31 c-3 17 -6 40 -6 50 0 37 -41 68 -100 73 -30 2 -71 1 -90 -3z"/>
<path d="M9512 2404 c-18 -12 -22 -25 -22 -68 0 -71 12 -79 109 -80 111 -1
142 21 155 117 l7 47 -113 0 c-87 0 -119 -4 -136 -16z"/>
<path d="M11193 2636 c-25 -11 -34 -24 -44 -58 -14 -53 -8 -244 10 -275 14
-28 48 -37 126 -37 111 1 136 35 134 191 -1 119 -7 140 -42 167 -35 26 -138
33 -184 12z"/>
<path d="M12050 2651 c-20 -4 -41 -10 -47 -14 -14 -9 -33 -71 -33 -109 l0 -28
141 0 142 0 -7 31 c-3 17 -6 40 -6 50 0 37 -41 68 -100 73 -30 2 -71 1 -90 -3z"/>
</g>
</svg>
