<?xml version="1.0" standalone="no"?>
<!DOCTYPE svg PUBLIC "-//W3C//DTD SVG 20010904//EN"
 "http://www.w3.org/TR/2001/REC-SVG-20010904/DTD/svg10.dtd">
<svg version="1.0" xmlns="http://www.w3.org/2000/svg"
 width="900.000000pt" height="900.000000pt" viewBox="0 0 900.000000 900.000000"
 preserveAspectRatio="xMidYMid meet">
<metadata>
Created by potrace 1.10, written by Peter Selinger 2001-2011
</metadata>
<g transform="translate(0.000000,900.000000) scale(0.100000,-0.100000)"
fill="#13134e" stroke="none">
<path d="M2310 8986 c0 -8 -15 -24 -32 -35 -74 -46 -118 -134 -118 -236 0 -85
18 -126 109 -260 19 -27 99 -146 178 -264 79 -117 186 -275 237 -350 148 -218
621 -917 709 -1048 69 -104 69 -104 163 -74 32 10 110 27 172 36 107 17 118
17 215 1 56 -10 123 -24 149 -33 59 -18 74 -11 49 25 -10 15 -37 54 -58 87
-22 33 -102 152 -178 265 -76 113 -186 275 -243 360 -58 85 -124 182 -146 215
-22 33 -45 68 -51 77 -5 9 -34 52 -64 95 -56 81 -255 374 -402 593 -46 69 -86
127 -89 130 -3 3 -50 73 -105 155 -55 83 -124 174 -152 203 -29 29 -53 58 -53
63 0 5 -62 9 -145 9 -119 0 -145 -3 -145 -14z"/>
<path d="M3630 6539 c-41 -11 -79 -24 -85 -28 -5 -5 -21 -12 -35 -16 -50 -15
-180 -108 -237 -169 -113 -120 -170 -227 -209 -393 -18 -79 -16 -285 3 -333 6
-14 19 -52 29 -85 37 -122 136 -261 254 -357 64 -52 193 -117 275 -139 103
-27 344 -27 435 1 260 80 464 282 533 530 51 180 49 307 -5 475 -22 67 -62
152 -84 176 -8 8 -14 20 -14 26 0 16 -149 165 -200 200 -69 47 -167 92 -249
113 -104 28 -306 27 -411 -1z"/>
<path d="M4825 5708 c-2 -7 -11 -51 -20 -98 -54 -285 -210 -516 -450 -667 -53
-33 -157 -83 -215 -102 -64 -21 -223 -51 -274 -51 -47 0 -55 -4 -102 -48 -28
-26 -64 -58 -80 -72 -16 -14 -64 -55 -107 -92 -43 -38 -82 -68 -86 -68 -9 0
-37 40 -166 240 -97 151 -139 214 -146 220 -3 3 -22 33 -42 67 -86 141 -219
200 -358 158 -127 -39 -209 -151 -209 -285 0 -83 10 -109 89 -230 31 -47 58
-89 61 -95 3 -5 57 -89 121 -185 64 -96 137 -209 164 -250 141 -220 216 -327
243 -347 17 -12 61 -30 98 -39 111 -28 210 1 311 93 50 46 58 53 248 217 83
71 170 148 195 170 25 23 77 69 115 102 192 169 573 501 681 594 66 58 129
119 139 135 44 70 55 108 55 177 0 79 -20 133 -79 213 -20 28 -67 96 -105 153
-37 56 -70 102 -72 102 -3 0 -6 -6 -9 -12z"/>
<path d="M4935 4718 c-22 -18 -82 -70 -134 -117 -52 -46 -103 -91 -114 -100
-19 -15 -120 -103 -143 -125 -6 -6 -38 -34 -70 -62 -33 -28 -97 -84 -143 -125
-46 -41 -101 -88 -123 -106 -21 -17 -76 -65 -121 -106 -341 -308 -405 -357
-529 -401 -33 -12 -49 -25 -56 -44 -6 -15 -20 -52 -32 -82 -12 -30 -25 -68
-30 -85 -5 -16 -20 -61 -33 -100 -14 -38 -39 -113 -55 -165 -27 -87 -38 -128
-78 -275 -18 -65 -68 -282 -86 -365 -28 -137 -14 -456 28 -640 32 -140 46
-197 60 -240 51 -162 65 -202 89 -265 14 -38 32 -83 39 -100 7 -16 24 -55 37
-85 13 -30 54 -117 91 -192 117 -235 206 -308 389 -316 89 -4 100 -2 171 27
91 38 155 98 198 186 66 133 60 230 -21 395 -58 116 -169 368 -169 383 0 5 -6
23 -14 40 -14 33 -64 194 -86 282 -19 74 -39 222 -39 285 -1 56 23 223 34 240
3 6 10 31 15 58 12 66 35 160 48 202 6 19 25 82 42 140 18 58 36 114 41 125 8
19 36 98 79 220 25 73 101 248 111 260 5 5 9 14 9 20 0 9 36 80 139 270 64
118 184 255 224 255 49 0 184 -174 272 -350 87 -175 155 -350 224 -580 12 -41
27 -85 32 -98 5 -13 9 -31 9 -41 0 -10 6 -41 14 -67 40 -139 46 -162 46 -181
0 -11 6 -43 14 -69 18 -64 46 -194 46 -216 0 -39 58 -135 152 -250 54 -68 132
-164 173 -215 127 -156 281 -318 337 -355 112 -73 236 -86 363 -38 72 28 169
120 203 192 40 86 47 247 15 314 -41 84 -73 128 -187 263 -320 378 -295 345
-316 424 -10 40 -21 90 -25 112 -3 22 -10 54 -15 70 -5 17 -19 68 -30 115 -11
47 -30 117 -41 155 -11 39 -26 93 -34 121 -42 150 -125 378 -202 554 -182 417
-443 735 -697 850 -36 17 -69 30 -74 30 -4 0 -25 -14 -47 -32z"/>
<path d="M6633 1489 c-29 -32 -53 -63 -53 -68 0 -12 378 -375 395 -379 13 -3
110 91 128 124 9 17 14 11 -202 214 -80 74 -151 143 -160 153 -26 29 -53 18
-108 -44z"/>
<path d="M4709 851 c-35 -26 -97 -71 -138 -101 -41 -29 -79 -56 -85 -61 -6 -6
-96 -72 -201 -149 -104 -76 -215 -157 -245 -180 -157 -119 -203 -149 -236
-160 -34 -12 -88 -9 -148 6 -26 6 -34 -5 -74 -111 -22 -58 -19 -75 13 -75 13
0 27 -4 30 -10 4 -6 53 -10 115 -10 94 0 117 3 164 24 49 22 119 71 384 269
20 15 164 122 320 237 155 115 282 215 282 221 0 14 -87 131 -105 141 -8 5
-37 -11 -76 -41z"/>
</g>
</svg>
